<svg xmlns="http://www.w3.org/2000/svg" viewBox="0 0 1024 768" role="img" aria-labelledby="t"><title id="t">identity color palette</title><defs>
<linearGradient id="crystal" x1="0" y1="0" x2="1" y2="1"><stop offset="0" stop-color="#f2efe9"/><stop offset=".32" stop-color="#d4af6a"/><stop offset=".62" stop-color="#bca9ff"/><stop offset=".82" stop-color="#6a4cff"/><stop offset="1" stop-color="#6ea8ff"/></linearGradient>
<radialGradient id="glow"><stop offset="0" stop-color="#f2efe9" stop-opacity=".9"/><stop offset=".25" stop-color="#d4af6a" stop-opacity=".35"/><stop offset="1" stop-color="#0a0a0e" stop-opacity="0"/></radialGradient>
<filter id="blur"><feGaussianBlur stdDeviation="8"/></filter>
</defs><rect width="1024" height="768" fill="#0a0a0e"/><g font-family="Inter,ui-sans-serif,system-ui,sans-serif"><text x="56" y="85" fill="#f2efe9" font-size="54" font-weight="300" letter-spacing="12">identity</text><text x="60" y="130" fill="#d4af6a" font-size="18" letter-spacing="6">color palette</text><text x="60" y="190" fill="#cdbA9A" font-size="16">contrast and clarity · depth elevated by light</text></g><circle cx="820" cy="150" r="59.49999999999999" fill="url(#glow)" opacity=".55"/><circle cx="820" cy="150" r="52.5" fill="none" stroke="#d4af6a" stroke-width="0.5599999999999999" opacity=".8"/><circle cx="820" cy="150" r="43.75" fill="none" stroke="#cdbA9A" stroke-width="0.35" opacity=".45"/><line x1="758.75" y1="150" x2="881.25" y2="150" stroke="#d4af6a" stroke-width="0.35" opacity=".55"/><line x1="820" y1="87.0" x2="820" y2="216.5" stroke="#f2efe9" stroke-width="0.5249999999999999" opacity=".75"/><polygon points="820,116.75 832.25,132.5 832.25,167.5 820,183.25 807.75,167.5 807.75,132.5" fill="url(#crystal)" fill-opacity=".72" stroke="#f2efe9" stroke-width="0.45499999999999996"/><polyline points="820,116.75 820,183.25" fill="none" stroke="#f2efe9" stroke-width="0.735" opacity=".85"/><polyline points="820,116.75 807.75,132.5 820,183.25" fill="none" stroke="#bca9ff" stroke-width="0.27999999999999997" opacity=".6"/><polyline points="820,116.75 832.25,132.5 820,183.25" fill="none" stroke="#d4af6a" stroke-width="0.27999999999999997" opacity=".7"/><circle cx="767.5" cy="150" r="1.4" fill="#f2efe9"/><circle cx="767.5" cy="150" r="3.5" fill="#d4af6a" opacity=".12"/><circle cx="872.5" cy="150" r="1.4" fill="#f2efe9"/><circle cx="872.5" cy="150" r="3.5" fill="#d4af6a" opacity=".12"/><circle cx="820" cy="97.5" r="1.4" fill="#f2efe9"/><circle cx="820" cy="97.5" r="3.5" fill="#d4af6a" opacity=".12"/><circle cx="820" cy="202.5" r="1.4" fill="#f2efe9"/><circle cx="820" cy="202.5" r="3.5" fill="#d4af6a" opacity=".12"/><ellipse cx="820" cy="210.9" rx="24.5" ry="4.55" fill="none" stroke="#d4af6a" opacity=".45"/><g transform="translate(55,300)"><rect width="112" height="180" rx="8" fill="#0a0a0e" stroke="#f2efe9" stroke-opacity=".15"/><text x="56" y="210" text-anchor="middle" fill="#f2efe9" font-size="13">obsidian</text><text x="56" y="234" text-anchor="middle" fill="#cdbA9A" font-size="12">#0a0a0e</text></g><g transform="translate(190,300)"><rect width="112" height="180" rx="8" fill="#f2efe9" stroke="#f2efe9" stroke-opacity=".15"/><text x="56" y="210" text-anchor="middle" fill="#f2efe9" font-size="13">ivory</text><text x="56" y="234" text-anchor="middle" fill="#cdbA9A" font-size="12">#f2efe9</text></g><g transform="translate(325,300)"><rect width="112" height="180" rx="8" fill="#d4af6a" stroke="#f2efe9" stroke-opacity=".15"/><text x="56" y="210" text-anchor="middle" fill="#f2efe9" font-size="13">aureus</text><text x="56" y="234" text-anchor="middle" fill="#cdbA9A" font-size="12">#d4af6a</text></g><g transform="translate(460,300)"><rect width="112" height="180" rx="8" fill="#cdba9a" stroke="#f2efe9" stroke-opacity=".15"/><text x="56" y="210" text-anchor="middle" fill="#f2efe9" font-size="13">champagne</text><text x="56" y="234" text-anchor="middle" fill="#cdbA9A" font-size="12">#cdba9a</text></g><g transform="translate(595,300)"><rect width="112" height="180" rx="8" fill="#bca9ff" stroke="#f2efe9" stroke-opacity=".15"/><text x="56" y="210" text-anchor="middle" fill="#f2efe9" font-size="13">lavender spectrum</text><text x="56" y="234" text-anchor="middle" fill="#cdbA9A" font-size="12">#bca9ff</text></g><g transform="translate(730,300)"><rect width="112" height="180" rx="8" fill="#6a4cff" stroke="#f2efe9" stroke-opacity=".15"/><text x="56" y="210" text-anchor="middle" fill="#f2efe9" font-size="13">deep violet</text><text x="56" y="234" text-anchor="middle" fill="#cdbA9A" font-size="12">#6a4cff</text></g><g transform="translate(865,300)"><rect width="112" height="180" rx="8" fill="#6ea8ff" stroke="#f2efe9" stroke-opacity=".15"/><text x="56" y="210" text-anchor="middle" fill="#f2efe9" font-size="13">luminous blue</text><text x="56" y="234" text-anchor="middle" fill="#cdbA9A" font-size="12">#6ea8ff</text></g></svg>