<svg xmlns="http://www.w3.org/2000/svg" viewBox="0 0 1200 630" role="img" aria-labelledby="t"><title id="t">identity — brand kit generator</title><defs>
<linearGradient id="crystal" x1="0" y1="0" x2="1" y2="1"><stop offset="0" stop-color="#f2efe9"/><stop offset=".32" stop-color="#d4af6a"/><stop offset=".62" stop-color="#bca9ff"/><stop offset=".82" stop-color="#6a4cff"/><stop offset="1" stop-color="#6ea8ff"/></linearGradient>
<radialGradient id="glow"><stop offset="0" stop-color="#f2efe9" stop-opacity=".9"/><stop offset=".25" stop-color="#d4af6a" stop-opacity=".35"/><stop offset="1" stop-color="#0a0a0e" stop-opacity="0"/></radialGradient>
<filter id="blur"><feGaussianBlur stdDeviation="8"/></filter>
</defs><rect width="100%" height="100%" fill="#0a0a0e"/><circle cx="864" cy="315" r="270" fill="url(#glow)" opacity=".28"/><circle cx="864" cy="302" r="118.99999999999999" fill="url(#glow)" opacity=".55"/><circle cx="864" cy="302" r="105.0" fill="none" stroke="#d4af6a" stroke-width="1.1199999999999999" opacity=".8"/><circle cx="864" cy="302" r="87.5" fill="none" stroke="#cdbA9A" stroke-width="0.7" opacity=".45"/><line x1="741.5" y1="302" x2="986.5" y2="302" stroke="#d4af6a" stroke-width="0.7" opacity=".55"/><line x1="864" y1="176.0" x2="864" y2="435.0" stroke="#f2efe9" stroke-width="1.0499999999999998" opacity=".75"/><polygon points="864,235.5 888.5,267.0 888.5,337.0 864,368.5 839.5,337.0 839.5,267.0" fill="url(#crystal)" fill-opacity=".72" stroke="#f2efe9" stroke-width="0.9099999999999999"/><polyline points="864,235.5 864,368.5" fill="none" stroke="#f2efe9" stroke-width="1.47" opacity=".85"/><polyline points="864,235.5 839.5,267.0 864,368.5" fill="none" stroke="#bca9ff" stroke-width="0.5599999999999999" opacity=".6"/><polyline points="864,235.5 888.5,267.0 864,368.5" fill="none" stroke="#d4af6a" stroke-width="0.5599999999999999" opacity=".7"/><circle cx="759.0" cy="302" r="2.8" fill="#f2efe9"/><circle cx="759.0" cy="302" r="7.0" fill="#d4af6a" opacity=".12"/><circle cx="969.0" cy="302" r="2.8" fill="#f2efe9"/><circle cx="969.0" cy="302" r="7.0" fill="#d4af6a" opacity=".12"/><circle cx="864" cy="197.0" r="2.8" fill="#f2efe9"/><circle cx="864" cy="197.0" r="7.0" fill="#d4af6a" opacity=".12"/><circle cx="864" cy="407.0" r="2.8" fill="#f2efe9"/><circle cx="864" cy="407.0" r="7.0" fill="#d4af6a" opacity=".12"/><ellipse cx="864" cy="423.8" rx="49.0" ry="9.1" fill="none" stroke="#d4af6a" opacity=".45"/><g font-family="Inter,ui-sans-serif,system-ui,sans-serif"><text x="96" y="296" fill="#f2efe9" font-size="119" font-weight="300" letter-spacing="15">identity</text><text x="102" y="371" fill="#d4af6a" font-size="34" letter-spacing="10">brand kit generator</text></g></svg>